<?xml version="1.0" standalone="no"?>
<!DOCTYPE svg PUBLIC "-//W3C//DTD SVG 20010904//EN"
 "http://www.w3.org/TR/2001/REC-SVG-20010904/DTD/svg10.dtd">
<svg version="1.0" xmlns="http://www.w3.org/2000/svg"
 width="512.000000pt" height="512.000000pt" viewBox="0 0 512.000000 512.000000"
 preserveAspectRatio="xMidYMid meet">

<g transform="translate(0.000000,512.000000) scale(0.100000,-0.100000)"
fill="#000000" stroke="none">
<path d="M1790 4963 c-52 -8 -147 -47 -195 -79 -27 -19 -188 -170 -356 -337
-249 -246 -313 -314 -342 -367 -69 -124 -67 -103 -67 -921 l0 -737 -32 -13
c-58 -24 -202 -125 -264 -185 -323 -313 -392 -805 -168 -1187 39 -66 110 -162
142 -190 20 -18 20 -19 -70 -175 -118 -206 -138 -246 -138 -278 0 -38 29 -81
68 -100 32 -15 42 -15 151 5 64 12 120 21 123 21 3 0 25 -49 48 -109 48 -125
70 -151 132 -158 72 -7 91 12 212 225 104 185 109 192 135 185 14 -4 53 -11
86 -17 l59 -11 98 -170 c54 -94 109 -180 123 -192 19 -16 39 -23 70 -23 70 0
96 29 140 160 21 60 41 110 44 110 4 0 57 -9 119 -21 93 -16 120 -18 148 -9
43 15 74 61 74 112 l0 37 903 3 902 3 59 23 c145 55 245 155 303 302 15 39 18
96 23 405 l7 360 276 863 c297 925 296 923 258 1007 -17 38 -64 88 -92 97 -8
3 -1 34 20 101 45 140 40 207 -20 280 -105 128 -304 106 -378 -42 -10 -20 -29
-71 -41 -114 -13 -43 -27 -80 -32 -83 -4 -3 -8 184 -8 415 0 383 -2 424 -19
480 -35 112 -106 200 -214 265 -114 68 -80 66 -1229 65 -568 -1 -1044 -4
-1058 -6z m1212 -431 c3 -259 5 -291 21 -316 23 -34 80 -59 116 -51 15 3 64
40 109 82 l83 76 77 -75 c86 -84 119 -98 175 -74 64 26 67 41 67 356 l0 282
138 -4 c126 -3 142 -5 194 -31 62 -30 115 -83 150 -149 23 -43 23 -46 26 -492
3 -439 2 -451 -18 -490 -11 -23 -145 -435 -297 -916 l-276 -875 -4 -115 c-4
-97 -1 -137 21 -250 31 -157 49 -203 89 -235 l30 -23 -26 -85 c-15 -47 -27
-96 -27 -110 0 -32 43 -67 81 -67 42 0 64 28 95 124 24 72 32 86 49 86 41 0
144 61 214 128 l71 67 0 -207 c0 -184 -2 -213 -20 -262 -27 -72 -88 -139 -158
-173 l-57 -28 -946 -3 -947 -2 -61 109 c-34 60 -61 114 -61 118 0 5 12 20 26
34 72 67 172 234 209 347 l17 52 563 0 564 0 20 26 c27 35 26 57 -3 91 l-24
28 -544 3 -544 2 4 69 c4 64 -11 222 -24 256 -5 13 59 15 509 15 357 0 524 3
540 11 25 11 47 47 47 75 0 8 -11 26 -25 39 l-24 25 -550 0 -549 0 -38 68
c-49 89 -97 154 -163 225 l-54 57 812 0 812 0 24 25 c32 31 32 69 0 100 l-24
25 -930 0 -931 0 -62 25 c-94 37 -181 55 -298 62 -93 5 -219 -6 -262 -22 -13
-5 -16 85 -20 652 -3 362 -3 681 1 708 l6 50 341 5 341 5 36 25 c21 14 50 43
65 64 l27 39 3 348 3 348 82 4 c45 1 312 4 594 5 l512 2 3 -288z m1371 -959
c26 -10 47 -23 47 -31 0 -8 -77 -259 -171 -558 -94 -299 -167 -549 -163 -556
17 -30 49 -58 66 -58 39 0 76 29 92 72 16 46 230 724 291 923 20 66 38 125 40
132 3 8 21 6 66 -8 70 -22 89 -34 89 -57 0 -14 -498 -1612 -505 -1620 -3 -3
-456 138 -464 144 -6 5 500 1607 511 1622 14 17 44 15 101 -5z m-2894 -1161
c272 -94 468 -302 542 -577 28 -106 31 -298 5 -400 -43 -171 -165 -360 -295
-458 -152 -114 -293 -166 -471 -174 -425 -20 -782 266 -855 683 -19 109 -19
169 0 279 57 323 293 578 615 665 62 17 99 19 220 17 133 -3 153 -6 239 -35z"/>
<path d="M1763 3510 c-44 -18 -57 -86 -23 -120 20 -20 33 -20 833 -20 803 0
814 0 832 20 25 28 23 76 -4 103 l-22 22 -797 2 c-447 1 -807 -2 -819 -7z"/>
<path d="M1446 2999 c-33 -26 -36 -79 -6 -109 20 -20 33 -20 1133 -20 1048 0
1115 1 1129 18 9 9 19 27 22 39 8 26 -16 78 -39 87 -9 3 -511 6 -1114 6 -1096
0 -1098 0 -1125 -21z"/>
<path d="M1196 2110 c-47 -15 -77 -50 -121 -144 l-42 -90 -103 -17 c-113 -19
-145 -36 -172 -90 -38 -73 -16 -136 80 -233 l52 -52 -15 -78 c-27 -138 -14
-200 49 -241 54 -36 93 -31 198 24 l98 51 82 -41 c102 -51 133 -61 176 -53 44
9 99 64 108 108 3 20 -1 79 -11 133 l-17 98 70 65 c102 94 122 149 85 227 -22
48 -60 68 -151 82 -138 21 -125 13 -167 107 -36 80 -88 144 -118 144 -7 0 -21
2 -32 5 -11 2 -33 0 -49 -5z"/>
</g>
</svg>
