<?xml version="1.0" standalone="no"?>
<!DOCTYPE svg PUBLIC "-//W3C//DTD SVG 20010904//EN"
 "http://www.w3.org/TR/2001/REC-SVG-20010904/DTD/svg10.dtd">
<svg version="1.0" xmlns="http://www.w3.org/2000/svg"
 width="512.000000pt" height="512.000000pt" viewBox="0 0 512.000000 512.000000"
 preserveAspectRatio="xMidYMid meet">

<g transform="translate(0.000000,512.000000) scale(0.100000,-0.100000)"
fill="#000000" stroke="none">
<path d="M733 4786 c-191 -47 -353 -209 -398 -397 -13 -56 -15 -290 -15 -1829
0 -1539 2 -1773 15 -1829 47 -199 225 -367 425 -401 79 -13 2715 -7 2857 7
l92 9 221 148 c122 81 262 182 311 223 265 222 459 555 530 910 15 80 22 161
26 311 6 222 0 258 -52 315 -41 43 -62 54 -187 91 -155 47 -335 119 -483 193
l-120 60 -6 414 c-3 241 -10 429 -16 449 -23 76 -44 122 -75 168 -28 41 -350
376 -878 912 -157 160 -204 196 -309 234 -55 20 -74 21 -971 23 -715 1 -926
-1 -967 -11z m1804 -202 l22 -6 3 -371 c3 -370 4 -372 29 -437 55 -142 138
-234 273 -300 109 -54 161 -60 544 -60 l322 0 0 -339 0 -339 -37 14 c-80 28
-112 18 -283 -84 -220 -133 -446 -233 -705 -314 -128 -39 -144 -47 -186 -88
-57 -57 -69 -101 -69 -247 0 -426 110 -767 345 -1068 83 -106 229 -245 344
-325 51 -36 100 -71 109 -77 14 -10 -240 -12 -1223 -10 l-1240 2 -56 26 c-79
37 -131 88 -165 161 l-29 63 0 1775 0 1775 28 60 c15 33 42 75 60 93 36 38
108 78 164 91 42 10 1714 14 1750 5z m464 -371 c123 -126 303 -308 399 -406
l175 -178 -285 3 c-278 3 -286 4 -334 27 -66 33 -122 91 -155 160 -26 56 -26
57 -29 339 -2 155 -1 282 1 282 3 0 105 -102 228 -227z m740 -1738 c223 -133
444 -232 699 -316 l145 -47 -2 -163 c-2 -259 -42 -431 -148 -644 -120 -240
-272 -397 -594 -614 l-213 -143 -222 148 c-188 126 -238 164 -331 258 -124
125 -201 232 -274 387 -93 195 -131 374 -131 619 l0 155 100 29 c211 60 552
213 750 335 52 33 99 60 103 60 5 1 57 -28 118 -64z"/>
<path d="M1023 3935 c-33 -14 -63 -59 -63 -95 0 -12 7 -35 16 -51 29 -58 40
-59 520 -59 485 0 488 0 518 65 9 18 16 38 16 45 0 7 -7 27 -16 45 -30 65 -33
65 -521 65 -350 -1 -444 -4 -470 -15z"/>
<path d="M1023 3295 c-33 -14 -63 -59 -63 -95 0 -37 30 -81 65 -96 29 -12 160
-14 791 -14 838 0 806 -2 838 65 9 18 16 38 16 45 0 7 -7 27 -16 45 -32 68 1
65 -841 65 -623 -1 -764 -3 -790 -15z"/>
<path d="M1023 2655 c-33 -14 -63 -59 -63 -95 0 -37 30 -81 65 -96 51 -21
1739 -21 1790 0 35 15 65 59 65 96 0 37 -30 81 -65 96 -50 21 -1744 20 -1792
-1z"/>
<path d="M1023 2015 c-33 -14 -63 -59 -63 -95 0 -37 30 -81 65 -96 51 -21
1099 -21 1150 0 35 15 65 59 65 96 0 37 -30 81 -65 96 -50 21 -1104 20 -1152
-1z"/>
<path d="M1023 1375 c-33 -14 -63 -59 -63 -95 0 -37 30 -81 65 -96 51 -21
1099 -21 1150 0 35 15 65 59 65 96 0 37 -30 81 -65 96 -50 21 -1104 20 -1152
-1z"/>
<path d="M3910 1914 c-8 -4 -99 -90 -202 -192 l-188 -187 -78 78 c-100 99
-150 114 -206 62 -30 -27 -41 -64 -31 -102 9 -37 251 -279 288 -288 56 -14 78
2 320 243 234 235 237 238 237 280 0 31 -7 49 -27 72 -28 31 -80 46 -113 34z"/>
</g>
</svg>
