<?xml version="1.0" standalone="no"?>
<!DOCTYPE svg PUBLIC "-//W3C//DTD SVG 20010904//EN"
 "http://www.w3.org/TR/2001/REC-SVG-20010904/DTD/svg10.dtd">
<svg version="1.0" xmlns="http://www.w3.org/2000/svg"
 width="512.000000pt" height="512.000000pt" viewBox="0 0 512.000000 512.000000"
 preserveAspectRatio="xMidYMid meet">

<g transform="translate(0.000000,512.000000) scale(0.100000,-0.100000)"
fill="#000000" stroke="none">
<path d="M1100 5098 c-118 -45 -213 -129 -264 -234 -59 -121 -56 5 -56 -2084
0 -2080 -2 -1977 54 -2089 32 -62 113 -151 174 -189 61 -39 160 -72 217 -72
l45 0 0 -185 c0 -184 0 -186 25 -210 13 -14 35 -25 48 -25 14 0 71 33 136 80
61 44 114 80 117 80 3 0 55 -36 116 -80 66 -48 120 -80 135 -80 13 0 35 11 48
25 25 24 25 26 25 204 l0 181 1143 2 1142 3 42 22 c91 49 103 93 103 390 0
229 0 232 -23 259 -30 34 -83 36 -109 3 -16 -19 -18 -47 -18 -258 0 -171 -3
-240 -12 -249 -9 -9 -276 -12 -1140 -12 l-1128 0 0 90 0 90 984 2 c952 3 985
4 1005 22 27 25 28 79 1 106 -20 20 -33 20 -1408 20 l-1389 0 -21 -23 c-27
-29 -28 -67 -3 -98 17 -21 30 -24 100 -27 l81 -4 0 -89 0 -89 -35 0 c-52 0
-138 36 -187 80 -25 21 -60 67 -79 102 -34 63 -34 64 -34 193 0 122 2 134 27
186 35 70 97 132 168 167 l55 27 1562 5 c1483 5 1563 6 1580 23 17 17 18 104
21 1803 1 1207 -1 1799 -8 1825 -6 21 -22 52 -36 69 -55 65 67 60 -1616 59
-1530 0 -1533 0 -1588 -21z m3090 -137 c7 -13 10 -575 10 -1745 l0 -1726
-1517 -2 -1518 -3 -58 -23 c-31 -13 -80 -39 -109 -58 -28 -19 -55 -37 -60 -40
-4 -3 -7 748 -6 1678 l3 1683 26 55 c28 59 94 132 143 157 81 43 46 42 1593
42 1456 1 1482 1 1493 -18z m-2420 -4462 c0 -205 -3 -259 -12 -253 -7 4 -41
27 -74 51 -37 26 -73 43 -89 43 -18 0 -53 -18 -97 -50 -38 -28 -71 -50 -73
-50 -3 0 -5 117 -5 260 l0 260 175 0 175 0 0 -261z"/>
<path d="M1665 4733 c-133 -28 -290 -120 -368 -215 -180 -220 -214 -494 -93
-743 79 -161 222 -286 391 -342 70 -24 96 -27 210 -28 147 0 216 17 335 82 98
54 217 179 268 280 48 96 74 205 70 287 -3 50 -7 62 -29 79 -59 44 -119 -5
-119 -98 0 -26 -11 -81 -25 -122 -126 -375 -594 -487 -870 -207 -74 74 -120
162 -142 271 -68 326 213 645 547 619 81 -6 170 -32 234 -70 52 -31 136 -104
136 -119 0 -7 -96 -107 -212 -224 l-213 -213 -111 111 c-95 95 -115 110 -144
111 -38 1 -80 -38 -80 -74 0 -14 52 -74 152 -175 139 -139 155 -153 187 -153
33 0 59 23 384 348 347 347 348 349 345 387 -2 27 -10 44 -30 58 -35 26 -67
17 -122 -33 l-43 -39 -39 40 c-152 157 -399 230 -619 182z"/>
<path d="M3185 4734 c-150 -32 -314 -138 -400 -258 -154 -217 -176 -468 -61
-701 110 -224 317 -359 567 -372 207 -11 363 49 509 196 145 145 206 303 197
506 -18 415 -405 715 -812 629z m307 -163 c217 -76 357 -272 358 -501 0 -283
-238 -520 -523 -520 -174 0 -340 87 -433 227 -206 311 -48 716 315 808 73 19
208 12 283 -14z"/>
<path d="M3009 4382 c-15 -13 -22 -30 -22 -51 0 -28 16 -49 119 -152 l119
-119 -119 -119 c-103 -103 -119 -124 -119 -152 0 -39 32 -69 76 -69 25 0 50
19 149 117 l118 117 118 -117 c100 -100 122 -117 149 -117 22 0 38 8 52 26 39
50 30 68 -96 196 l-117 118 117 118 c126 128 135 146 96 196 -14 18 -30 26
-52 26 -27 0 -49 -17 -149 -117 l-118 -117 -118 117 c-128 126 -153 139 -203
99z"/>
<path d="M1533 2896 c-119 -38 -174 -139 -174 -321 0 -163 44 -261 141 -312
39 -21 56 -24 132 -21 77 3 91 6 129 33 58 41 90 106 97 194 9 128 -8 144
-153 139 -86 -3 -89 -4 -96 -30 -4 -15 -2 -36 5 -50 10 -19 20 -23 69 -26 56
-3 57 -4 57 -33 0 -37 -23 -83 -52 -103 -33 -23 -109 -21 -141 4 -41 32 -62
102 -62 205 0 151 43 225 129 225 51 0 81 -20 104 -68 20 -43 61 -59 105 -43
34 13 36 49 5 111 -47 93 -173 134 -295 96z"/>
<path d="M1977 2893 c-12 -12 -8 -477 4 -514 32 -95 107 -142 226 -142 120 1
194 53 222 158 6 23 11 135 11 261 0 249 1 247 -72 242 l-43 -3 -5 -235 c-3
-162 -9 -242 -18 -257 -34 -61 -120 -72 -174 -24 l-33 29 -3 233 c-2 146 -7
238 -14 246 -11 13 -89 18 -101 6z"/>
<path d="M2572 2888 c-17 -17 -17 -619 0 -636 7 -7 31 -12 55 -12 32 0 45 5
53 19 6 12 10 129 10 311 0 182 -4 299 -10 311 -8 14 -21 19 -53 19 -24 0 -48
-5 -55 -12z"/>
<path d="M2845 2888 c-11 -6 -23 -16 -27 -22 -4 -6 -8 -138 -8 -292 0 -355
-12 -329 162 -329 139 1 175 12 234 73 55 57 78 129 78 252 1 81 -4 118 -19
160 -25 69 -94 141 -151 158 -52 15 -242 15 -269 0z m235 -113 c96 -50 109
-314 19 -389 -26 -23 -40 -26 -100 -26 l-69 0 0 208 c0 115 3 212 7 215 12 13
114 7 143 -8z"/>
<path d="M3409 2881 l-24 -19 -3 -280 -3 -280 25 -28 24 -29 150 -3 c175 -5
192 0 192 56 0 21 -5 43 -12 50 -8 8 -52 12 -130 12 l-118 0 0 85 0 84 107 3
c107 3 108 3 117 30 7 18 6 35 -2 53 -11 24 -14 25 -117 25 l-105 0 0 75 0 75
118 0 c130 0 142 5 142 55 0 52 -10 55 -181 55 -139 0 -159 -2 -180 -19z"/>
<path d="M1324 1196 c-50 -22 -60 -78 -21 -114 l23 -22 812 0 c799 0 812 0
832 20 25 25 26 71 1 101 l-19 24 -799 2 c-654 2 -804 0 -829 -11z"/>
<path d="M3250 1203 c-34 -13 -50 -37 -50 -74 0 -69 1 -69 367 -69 310 0 324
1 343 20 27 27 26 81 -1 106 -20 18 -42 19 -333 21 -171 1 -318 -1 -326 -4z"/>
</g>
</svg>
