<?xml version="1.0" standalone="no"?>
<!DOCTYPE svg PUBLIC "-//W3C//DTD SVG 20010904//EN"
 "http://www.w3.org/TR/2001/REC-SVG-20010904/DTD/svg10.dtd">
<svg version="1.0" xmlns="http://www.w3.org/2000/svg"
 width="512.000000pt" height="512.000000pt" viewBox="0 0 512.000000 512.000000"
 preserveAspectRatio="xMidYMid meet">

<g transform="translate(0.000000,512.000000) scale(0.100000,-0.100000)"
fill="#000000" stroke="none">
<path d="M2397 4297 l-1057 -442 766 -3 c421 -1 1107 -1 1523 0 l758 3 -129
310 c-72 172 -138 318 -150 328 -16 13 -39 17 -107 17 -161 0 -286 50 -406
162 -61 57 -78 68 -106 67 -21 0 -459 -178 -1092 -442z"/>
<path d="M480 3657 c-13 -7 -30 -23 -36 -37 -7 -14 -28 -59 -48 -100 -61 -131
-157 -218 -300 -276 -48 -19 -71 -34 -81 -55 -13 -24 -15 -187 -15 -1168 0
-814 3 -1147 11 -1164 6 -14 21 -29 33 -35 11 -5 56 -26 99 -46 125 -57 241
-183 282 -307 32 -94 -1 -89 551 -89 l484 0 0 50 c0 61 19 102 55 118 78 36
135 -20 135 -130 l0 -38 1493 0 1494 0 21 23 c12 12 28 43 37 67 51 144 175
268 328 329 108 44 97 -92 97 1225 0 999 -2 1154 -15 1173 -8 11 -45 33 -82
48 -152 60 -241 146 -314 301 -42 87 -53 103 -80 113 -23 8 -453 11 -1504 11
l-1472 0 -6 -67 c-4 -57 -9 -71 -32 -90 -37 -32 -94 -31 -125 2 -19 20 -25 40
-28 90 l-4 65 -477 0 c-361 0 -482 -3 -501 -13z m1122 -368 c33 -18 48 -71 48
-169 0 -98 -15 -151 -48 -169 -34 -18 -79 -13 -109 13 l-28 24 0 132 0 132 28
24 c30 26 75 31 109 13z m1973 -4 c196 -32 357 -94 512 -198 122 -81 204 -155
288 -260 204 -255 296 -536 282 -865 -21 -503 -339 -946 -810 -1131 -160 -62
-283 -85 -467 -84 -215 0 -380 38 -564 129 -357 178 -604 499 -687 897 -31
145 -31 362 0 507 114 539 553 941 1106 1013 75 10 258 6 340 -8z m-2415 -191
c11 -11 23 -37 27 -57 5 -31 1 -40 -25 -67 l-30 -30 -397 0 c-265 0 -403 4
-417 11 -31 17 -50 71 -37 108 21 60 24 61 461 58 386 -2 398 -3 418 -23z m4
-375 c14 -17 26 -39 26 -50 0 -33 -29 -79 -56 -89 -15 -6 -187 -10 -405 -10
-320 0 -385 2 -409 15 -53 27 -57 115 -7 150 18 13 84 15 423 15 l402 0 26
-31z m438 20 c33 -18 48 -71 48 -169 0 -98 -15 -151 -48 -169 -34 -18 -79 -13
-109 13 l-28 24 0 132 0 132 28 24 c30 26 75 31 109 13z m-441 -567 c32 -35
35 -57 17 -97 -24 -54 -34 -55 -452 -55 l-386 0 -31 28 c-24 22 -31 36 -31 66
0 42 30 82 66 89 11 3 193 4 404 3 l384 -1 29 -33z m460 2 c21 -22 24 -36 27
-129 3 -63 0 -117 -8 -139 -19 -57 -90 -84 -136 -51 -37 25 -46 66 -42 183 3
101 5 113 27 136 34 36 98 36 132 0z m-461 -360 c11 -11 23 -37 27 -57 5 -31
1 -40 -25 -67 l-30 -30 -397 0 c-265 0 -403 4 -417 11 -31 17 -50 71 -37 108
21 60 24 61 461 58 386 -2 398 -3 418 -23z m459 -189 c21 -21 25 -36 29 -109
2 -47 1 -105 -2 -129 -11 -75 -66 -112 -127 -87 -50 21 -61 57 -57 185 2 96 6
116 23 135 41 46 91 47 134 5z m-455 -186 c14 -17 26 -39 26 -50 0 -33 -29
-79 -56 -89 -15 -6 -187 -10 -405 -10 -320 0 -385 2 -409 15 -53 27 -57 115
-7 150 18 13 84 15 423 15 l402 0 26 -31z m-25 -343 c28 -15 51 -53 51 -86 0
-10 -12 -32 -26 -49 l-26 -31 -403 0 -404 0 -26 23 c-40 34 -38 92 4 129 l31
28 386 0 c314 0 390 -3 413 -14z m473 -15 l33 -29 0 -127 0 -127 -33 -29 c-36
-32 -60 -36 -101 -14 -40 20 -51 61 -51 179 1 109 10 139 51 162 37 21 66 16
101 -15z"/>
<path d="M3247 3112 c-21 -4 -37 -11 -35 -17 2 -10 161 -125 172 -125 17 0
185 129 176 135 -15 9 -267 15 -313 7z"/>
<path d="M2868 2988 c-104 -58 -180 -114 -257 -192 l-63 -64 57 -183 c31 -101
60 -187 64 -191 13 -14 244 -77 256 -70 6 4 91 63 188 131 l177 124 0 133 0
133 -152 107 c-84 59 -162 109 -173 111 -11 2 -55 -16 -97 -39z"/>
<path d="M3651 2931 c-79 -56 -153 -108 -163 -118 -17 -15 -18 -30 -16 -142
l3 -125 188 -133 188 -133 125 36 124 37 41 131 c22 72 49 157 59 188 l19 57
-46 51 c-77 86 -280 226 -353 245 -21 5 -52 -13 -169 -94z"/>
<path d="M2378 2463 c-31 -69 -81 -247 -76 -271 3 -16 178 112 178 130 0 18
-60 208 -66 208 -3 0 -19 -30 -36 -67z"/>
<path d="M4345 2518 c-24 -61 -63 -204 -57 -209 35 -30 174 -130 177 -127 6 6
-24 135 -48 205 -35 100 -64 152 -72 131z"/>
<path d="M3210 2264 c-135 -95 -165 -120 -162 -138 1 -12 28 -100 60 -196 l59
-175 214 -3 215 -2 63 191 c34 105 61 196 58 202 -5 14 -320 237 -334 237 -5
0 -83 -52 -173 -116z"/>
<path d="M2450 2059 l-155 -119 3 -52 c4 -79 47 -228 93 -329 l42 -89 206 0
207 0 70 93 c39 50 73 97 77 103 3 6 -25 107 -63 225 l-69 215 -118 34 c-65
18 -122 34 -128 36 -5 1 -80 -52 -165 -117z"/>
<path d="M4026 2141 l-119 -36 -69 -205 c-37 -112 -68 -211 -68 -220 0 -8 34
-59 75 -112 l76 -98 203 0 204 0 20 34 c55 93 115 285 123 398 3 36 2 37 -150
153 -85 64 -159 118 -165 120 -6 1 -65 -14 -130 -34z"/>
<path d="M3076 1471 c-42 -55 -76 -104 -76 -109 0 -5 29 -100 65 -209 l65
-200 69 -12 c88 -14 308 -13 381 2 l55 12 67 205 67 204 -56 76 c-31 41 -67
87 -81 103 l-26 27 -227 0 -227 0 -76 -99z"/>
<path d="M2635 1223 c39 -36 95 -82 125 -103 58 -39 140 -84 145 -78 1 2 -15
58 -37 126 l-39 122 -132 0 -132 -1 70 -66z"/>
<path d="M3937 1283 c-13 -23 -78 -235 -74 -239 19 -19 304 187 321 232 4 12
-16 14 -119 14 -68 0 -126 -3 -128 -7z"/>
</g>
</svg>
