<?xml version="1.0" standalone="no"?>
<!DOCTYPE svg PUBLIC "-//W3C//DTD SVG 20010904//EN"
 "http://www.w3.org/TR/2001/REC-SVG-20010904/DTD/svg10.dtd">
<svg version="1.0" xmlns="http://www.w3.org/2000/svg"
 width="512.000000pt" height="512.000000pt" viewBox="0 0 512.000000 512.000000"
 preserveAspectRatio="xMidYMid meet">

<g transform="translate(0.000000,512.000000) scale(0.100000,-0.100000)"
fill="#000000" stroke="none">
<path d="M2191 4265 l-1234 -515 -205 0 c-168 0 -210 -3 -238 -16 -46 -22 -71
-56 -90 -123 -25 -85 -58 -142 -107 -188 -54 -50 -85 -67 -159 -86 -73 -19
-116 -50 -139 -101 -18 -39 -19 -91 -19 -1189 0 -942 2 -1153 14 -1180 20 -49
77 -93 136 -106 140 -30 228 -117 269 -266 22 -77 65 -130 121 -145 48 -14
3992 -14 4040 0 56 15 99 68 121 145 41 149 129 236 269 266 59 13 116 57 136
106 12 27 14 245 14 1217 l0 1185 -23 26 c-18 21 -35 28 -88 35 -160 19 -264
113 -313 281 -29 102 -78 139 -184 139 l-59 0 -138 333 c-174 418 -191 457
-213 473 -22 17 -56 17 -116 -1 -138 -42 -288 11 -378 132 -43 58 -99 92 -153
93 -17 0 -556 -220 -1264 -515z m1332 262 c115 -115 240 -164 398 -155 l86 5
123 -294 c67 -162 124 -303 127 -314 5 -19 -12 -19 -1413 -18 -999 0 -1414 3
-1404 11 17 11 1990 836 2003 837 4 1 40 -32 80 -72z m-1983 -1005 c0 -44 5
-63 20 -79 27 -30 56 -37 91 -22 38 15 59 56 59 114 l0 45 1409 0 1410 0 17
-61 c31 -109 124 -229 223 -287 26 -15 75 -37 111 -49 l65 -22 3 -1114 2
-1115 -47 -12 c-164 -41 -322 -199 -363 -362 l-12 -48 -1408 0 -1408 0 -4 60
c-5 73 -33 110 -84 110 -54 0 -78 -29 -84 -102 l-5 -63 -471 -3 -470 -2 -22
69 c-54 166 -194 301 -355 341 l-47 12 2 1115 3 1115 56 17 c165 52 304 194
348 359 l12 42 474 0 475 0 0 -58z"/>
<path d="M1565 3215 c-24 -23 -25 -30 -25 -145 0 -106 2 -122 20 -140 28 -28
69 -36 99 -19 43 25 52 54 49 171 -3 97 -5 109 -27 132 -33 35 -83 35 -116 1z"/>
<path d="M3126 3225 c-243 -46 -445 -148 -617 -312 -320 -304 -446 -745 -334
-1170 95 -362 354 -659 697 -798 317 -129 660 -121 964 24 136 65 211 117 323
226 467 451 484 1190 37 1672 -152 164 -351 279 -585 340 -124 32 -363 41
-485 18z m327 -161 c26 -4 44 -10 42 -15 -3 -4 -41 -33 -85 -64 l-81 -56 -91
63 -91 63 34 6 c47 9 217 10 272 3z m-358 -179 l144 -100 1 -126 0 -125 -174
-123 -174 -122 -114 33 c-62 17 -116 36 -119 41 -4 5 -30 86 -59 179 l-52 170
43 45 c92 93 308 237 347 230 7 -1 78 -47 157 -102z m693 76 c83 -43 190 -120
259 -190 l61 -60 -54 -172 c-29 -95 -57 -175 -61 -179 -4 -4 -57 -22 -117 -40
l-108 -31 -82 56 c-44 30 -124 86 -176 123 l-95 68 -3 121 -3 121 153 106 c83
58 156 106 160 106 5 0 34 -13 66 -29z m-1333 -526 c14 -47 28 -91 31 -99 3
-9 -23 -36 -75 -75 -44 -34 -82 -61 -85 -61 -11 0 -6 36 14 114 20 75 73 206
84 206 3 0 16 -38 31 -85z m1844 -70 c16 -49 32 -110 36 -134 l7 -44 -83 63
c-46 35 -86 65 -88 67 -4 3 32 132 50 181 l11 27 19 -35 c10 -19 32 -75 48
-125z m-837 -71 c68 -48 137 -97 155 -110 l31 -24 -61 -185 -62 -185 -199 2
-200 3 -59 184 -58 183 23 17 c204 145 285 200 295 201 7 0 68 -39 135 -86z
m-734 -136 l112 -32 66 -203 65 -203 -68 -90 -68 -89 -196 -1 c-227 0 -202
-12 -258 123 -32 79 -70 228 -71 279 0 23 21 43 143 137 78 60 147 110 152
110 6 1 61 -13 123 -31z m1474 -79 l148 -112 -5 -36 c-23 -142 -68 -287 -113
-363 l-16 -28 -197 0 -196 0 -67 87 c-36 48 -66 94 -66 103 0 8 28 101 63 205
l64 190 104 32 c57 17 110 32 118 32 8 1 81 -49 163 -110z m-584 -552 l71 -92
-60 -185 c-33 -102 -64 -188 -68 -192 -27 -28 -297 -40 -409 -18 l-62 13 -61
190 c-37 117 -58 196 -53 203 5 7 36 49 69 93 l60 80 221 1 221 0 71 -93z
m-771 -272 c43 -129 43 -130 -9 -104 -79 40 -258 179 -258 200 0 6 49 8 117 7
l116 -3 34 -100z m1188 55 c-68 -69 -247 -191 -261 -178 -2 2 13 55 33 116
l37 112 120 0 120 0 -49 -50z"/>
<path d="M455 3045 c-25 -24 -32 -65 -19 -100 16 -42 45 -45 424 -45 l362 0
29 29 c31 31 36 59 17 94 -24 46 -23 46 -416 47 l-373 0 -24 -25z"/>
<path d="M455 2705 c-17 -16 -25 -35 -25 -60 0 -25 8 -44 25 -60 l24 -25 371
0 372 0 29 29 c17 18 29 40 29 56 0 16 -12 38 -29 56 l-29 29 -372 0 -371 0
-24 -25z"/>
<path d="M1565 2705 c-24 -23 -25 -30 -25 -145 0 -115 1 -122 25 -145 31 -32
75 -32 112 -1 28 24 28 25 28 146 0 121 0 122 -28 146 -37 31 -81 31 -112 -1z"/>
<path d="M475 2208 c-52 -28 -62 -92 -20 -133 l24 -25 370 0 c203 0 377 3 386
6 19 8 45 55 45 84 0 12 -13 35 -29 51 l-29 29 -364 0 c-243 -1 -370 -4 -383
-12z"/>
<path d="M1585 2209 c-41 -23 -45 -39 -45 -165 0 -120 0 -123 26 -143 37 -29
85 -27 115 5 23 24 24 32 24 145 0 105 -2 121 -20 138 -25 25 -74 35 -100 20z"/>
<path d="M461 1854 c-40 -33 -43 -83 -6 -119 l24 -25 376 0 376 0 24 25 c32
31 32 75 1 112 l-24 28 -370 3 -370 3 -31 -27z"/>
<path d="M1600 1703 c-8 -3 -25 -15 -37 -26 -21 -19 -23 -29 -23 -142 0 -114
1 -123 23 -143 25 -23 75 -29 107 -12 28 15 40 64 40 162 0 104 -14 141 -61
157 -18 6 -32 11 -33 10 -1 0 -8 -3 -16 -6z"/>
<path d="M495 1533 c-65 -16 -87 -98 -39 -144 l26 -24 331 -3 c183 -2 352 0
376 3 84 13 117 83 67 142 l-24 28 -359 2 c-197 0 -367 -1 -378 -4z"/>
<path d="M452 1167 c-31 -33 -29 -87 4 -118 l26 -24 375 0 375 0 24 28 c31 37
31 81 -1 112 l-24 25 -379 0 -379 0 -21 -23z"/>
<path d="M1562 1167 c-20 -21 -22 -34 -22 -143 0 -106 2 -123 20 -141 27 -30
56 -37 91 -22 45 18 59 55 59 157 0 137 -19 172 -93 172 -22 0 -41 -8 -55 -23z"/>
</g>
</svg>
