<?xml version="1.0" standalone="no"?>
<!DOCTYPE svg PUBLIC "-//W3C//DTD SVG 20010904//EN"
 "http://www.w3.org/TR/2001/REC-SVG-20010904/DTD/svg10.dtd">
<svg version="1.0" xmlns="http://www.w3.org/2000/svg"
 width="512.000000pt" height="512.000000pt" viewBox="0 0 512.000000 512.000000"
 preserveAspectRatio="xMidYMid meet">

<g transform="translate(0.000000,512.000000) scale(0.100000,-0.100000)"
fill="#000000" stroke="none">
<path d="M595 4915 c-234 -44 -424 -192 -524 -406 -75 -161 -71 -39 -71 -1949
0 -1920 -5 -1791 75 -1955 77 -159 175 -259 330 -335 165 -82 -42 -75 2270
-75 2021 0 2061 0 2120 20 127 41 245 153 297 282 l23 58 3 1430 c2 972 -1
1446 -8 1481 -45 216 -241 374 -465 374 l-54 0 -3 358 c-3 349 -4 358 -27 417
-57 143 -142 228 -286 286 l-60 24 -1775 2 c-1437 1 -1788 -1 -1845 -12z
m3598 -329 c15 -10 38 -33 50 -50 22 -30 22 -38 25 -364 l3 -332 -1818 2
-1818 3 -53 22 c-108 44 -200 138 -238 243 -72 198 73 436 296 486 43 10 448
12 1790 11 1681 -2 1736 -3 1763 -21z m-3656 -1042 c65 -18 152 -19 2113 -24
2302 -6 2088 3 2129 -83 20 -41 21 -58 21 -380 l0 -336 -677 -3 -678 -3 -70
-24 c-256 -85 -443 -279 -511 -531 -24 -89 -25 -282 -1 -370 70 -264 280 -473
542 -540 74 -19 110 -20 737 -20 l659 0 -3 -309 c-3 -295 -4 -311 -24 -337
-11 -15 -33 -37 -48 -48 l-27 -21 -1982 -3 c-1233 -1 -2006 1 -2045 7 -171 26
-305 152 -341 319 -8 38 -11 447 -11 1426 l0 1374 75 -38 c41 -21 105 -46 142
-56z m4263 -1569 l0 -425 -639 0 c-590 0 -644 1 -698 18 -153 48 -266 179
-294 341 -29 163 54 339 202 428 103 62 101 62 797 62 l632 1 0 -425z"/>
<path d="M3572 2191 c-97 -34 -156 -117 -155 -221 1 -70 27 -125 83 -173 173
-148 433 22 370 242 -35 124 -176 196 -298 152z"/>
</g>
</svg>
