<?xml version="1.0" standalone="no"?>
<!DOCTYPE svg PUBLIC "-//W3C//DTD SVG 20010904//EN"
 "http://www.w3.org/TR/2001/REC-SVG-20010904/DTD/svg10.dtd">
<svg version="1.0" xmlns="http://www.w3.org/2000/svg"
 width="512.000000pt" height="512.000000pt" viewBox="0 0 512.000000 512.000000"
 preserveAspectRatio="xMidYMid meet">

<g transform="translate(0.000000,512.000000) scale(0.100000,-0.100000)"
fill="#000000" stroke="none">
<path d="M2321 5109 c-486 -43 -989 -249 -1376 -564 -114 -92 -294 -274 -384
-387 -229 -287 -417 -675 -495 -1023 -49 -218 -60 -325 -60 -575 0 -250 11
-357 60 -575 79 -355 272 -749 509 -1040 92 -114 274 -294 387 -384 287 -229
675 -417 1023 -495 218 -49 325 -60 575 -60 250 0 357 11 575 60 261 58 603
204 828 353 389 259 688 599 893 1016 165 337 246 658 261 1033 23 598 -168
1183 -545 1672 -84 109 -323 348 -432 432 -528 407 -1164 595 -1819 537z
m1297 -408 c349 -176 683 -461 886 -755 l38 -56 -88 -377 -89 -376 -435 -145
-435 -145 -423 337 -422 337 2 431 3 432 440 177 c242 97 441 178 443 178 1 1
37 -17 80 -38z m-1588 -145 l435 -172 3 -431 2 -431 -421 -337 -421 -337 -436
144 -436 144 -89 378 -89 378 33 46 c175 250 431 489 699 655 108 67 244 137
265 136 11 0 216 -78 455 -173z m-890 -1741 c228 -76 419 -141 423 -145 5 -4
65 -232 133 -505 l125 -497 -206 -274 c-113 -151 -209 -274 -215 -274 -5 0
-194 29 -420 65 -226 36 -413 65 -415 65 -10 0 -141 240 -184 336 -87 195
-154 426 -185 643 -13 87 -13 108 -2 120 7 9 125 150 261 314 136 164 253 296
259 294 6 -2 198 -66 426 -142z m3527 -153 c137 -163 253 -304 260 -313 10
-12 9 -37 -2 -115 -45 -324 -146 -612 -312 -891 l-54 -91 -62 -11 c-34 -5
-224 -36 -421 -66 -359 -57 -360 -57 -375 -37 -9 12 -103 135 -209 275 l-193
255 121 483 c66 266 124 493 128 503 7 15 104 52 433 162 233 78 427 143 431
143 4 1 119 -133 255 -297z m-1305 -1380 l206 -273 -215 -377 c-118 -207 -219
-381 -223 -386 -4 -4 -39 -15 -77 -22 -291 -62 -613 -68 -899 -17 l-90 16
-253 395 -252 394 206 274 205 274 593 -2 592 -3 207 -273z"/>
</g>
</svg>
